# xmcd CD database file
#
# Track frame offsets:
#	150
#	16852
#	36962
#	49565
#	66210
#	78197
#	111072
#	126750
#	145195
#	157547
#	176202
#	193490
#	210232
#
# Disc length: 3095 seconds
#
# Revision: 4
# Processed by: cddbd v1.5.1PL0 Copyright (c) Steve Scherf et al.
# Submitted via: CDex 1.51
#
DISCID=a60c150d
DTITLE=Bobby Radcliff - There's A Cold Grave In Your Way
DYEAR=1994
DGENRE=Blues
TTITLE0=There's a Cold Grave in Your Way
TTITLE1=Baby, Get Lost
TTITLE2=Spanky's Twist
TTITLE3=Turn Back the Hands of Time
TTITLE4=Got Something for  You
TTITLE5=A Man and the Blues
TTITLE6=Hold It
TTITLE7=I Need You So
TTITLE8=Hard Luck Blues
TTITLE9=Funky Nassau
TTITLE10=Who's gonna  Take the Weight?
TTITLE11=Serve Me Right to Suffer
TTITLE12=Blues Medley
EXTD=YEAR: 1994
EXTT0=
EXTT1=
EXTT2=
EXTT3=
EXTT4=
EXTT5=
EXTT6=
EXTT7=
EXTT8=
EXTT9=
EXTT10=
EXTT11=
EXTT12=
PLAYORDER=
